<svg width="50" height="50" viewBox="0 0 700 700" fill="none" xmlns="http://www.w3.org/2000/svg">
<path d="M207.604 277.25L296.343 131.5H471.273L492.913 238.719L402.159 387H234.18L207.604 277.25Z" stroke="white" stroke-width="3"/>
<path d="M470 132.5L208.5 277L296.5 427L354.5 361.5L492.5 236.5" stroke="white" stroke-width="3"/>
<path d="M450.694 163.937L489.646 235.213L211.48 274.847L407.656 90.3824L450.694 163.937Z" stroke="white" stroke-width="3"/>
<path d="M401 386L207.5 277.5" stroke="white" stroke-width="3"/>
<path d="M471.5 131.5L407 90" stroke="white" stroke-width="3"/>
<path d="M297 428L234 387" stroke="white" stroke-width="3"/>
<path d="M141.375 467H153.062L182.875 541.188L212.625 467H224.375L187.375 558H178.25L141.375 467ZM137.562 467H147.875L149.562 522.5V558H137.562V467ZM217.812 467H228.125V558H216.125V522.5L217.812 467ZM284.125 475.062L254 558H241.688L276.375 467H284.312L284.125 475.062ZM309.375 558L279.188 475.062L279 467H286.938L321.75 558H309.375ZM307.812 524.312V534.188H256.688V524.312H307.812ZM400.438 512.688V546C399.312 547.667 397.521 549.542 395.062 551.625C392.604 553.667 389.208 555.458 384.875 557C380.583 558.5 375.042 559.25 368.25 559.25C362.708 559.25 357.604 558.292 352.938 556.375C348.312 554.417 344.292 551.583 340.875 547.875C337.5 544.125 334.875 539.583 333 534.25C331.167 528.875 330.25 522.792 330.25 516V508.938C330.25 502.146 331.042 496.083 332.625 490.75C334.25 485.417 336.625 480.896 339.75 477.188C342.875 473.438 346.708 470.604 351.25 468.688C355.792 466.729 361 465.75 366.875 465.75C373.833 465.75 379.646 466.958 384.312 469.375C389.021 471.75 392.688 475.042 395.312 479.25C397.979 483.458 399.688 488.25 400.438 493.625H388.375C387.833 490.333 386.75 487.333 385.125 484.625C383.542 481.917 381.271 479.75 378.312 478.125C375.354 476.458 371.542 475.625 366.875 475.625C362.667 475.625 359.021 476.396 355.938 477.938C352.854 479.479 350.312 481.688 348.312 484.562C346.312 487.438 344.812 490.917 343.812 495C342.854 499.083 342.375 503.688 342.375 508.812V516C342.375 521.25 342.979 525.938 344.188 530.062C345.438 534.188 347.208 537.708 349.5 540.625C351.792 543.5 354.521 545.688 357.688 547.188C360.896 548.688 364.438 549.438 368.312 549.438C372.604 549.438 376.083 549.083 378.75 548.375C381.417 547.625 383.5 546.75 385 545.75C386.5 544.708 387.646 543.729 388.438 542.812V522.438H367.375V512.688H400.438ZM478.25 548.188V558H430.062V548.188H478.25ZM432.5 467V558H420.438V467H432.5ZM471.875 506.125V515.938H430.062V506.125H471.875ZM477.625 467V476.875H430.062V467H477.625ZM563.188 467V558H551.062L505.25 487.812V558H493.188V467H505.25L551.25 537.375V467H563.188Z" fill="white"/>
<rect x="1.5" y="1.5" width="697" height="697" rx="348.5" stroke="white" stroke-width="3"/>
</svg>
