<svg width="725" height="596" viewBox="0 0 725 596" fill="none" xmlns="http://www.w3.org/2000/svg">
<g clip-path="url(#clip0_11_67)">
<path d="M168.125 513.551L143.797 562.664L119.434 513.551H115.461V564H117.781V515.414L141.863 564H145.73L169.215 516.574V564H171.535V513.551H168.125ZM227.56 562.734C223.037 562.734 219.17 561.129 215.959 557.918C212.748 554.707 211.142 550.84 211.142 546.316C211.142 541.77 212.748 537.891 215.959 534.68C219.17 531.469 223.037 529.863 227.56 529.863C232.107 529.863 235.986 531.469 239.197 534.68C242.408 537.891 244.013 541.77 244.013 546.316C244.013 550.84 242.408 554.707 239.197 557.918C235.986 561.129 232.107 562.734 227.56 562.734ZM244.013 528.633V537.281C242.373 534.328 240.111 531.984 237.228 530.25C234.275 528.445 231.052 527.543 227.56 527.543C222.404 527.543 217.986 529.383 214.306 533.062C210.65 536.719 208.822 541.137 208.822 546.316C208.822 551.473 210.65 555.891 214.306 559.57C217.986 563.227 222.404 565.055 227.56 565.055C231.052 565.055 234.275 564.152 237.228 562.348C240.111 560.613 242.373 558.27 244.013 555.316V563.965H246.334V528.633H244.013ZM302.78 562.734C298.257 562.734 294.39 561.129 291.179 557.918C287.968 554.707 286.363 550.84 286.363 546.316C286.363 541.77 287.968 537.891 291.179 534.68C294.39 531.469 298.257 529.863 302.78 529.863C307.327 529.863 311.206 531.469 314.417 534.68C317.628 537.891 319.234 541.77 319.234 546.316C319.234 550.84 317.628 554.707 314.417 557.918C311.206 561.129 307.327 562.734 302.78 562.734ZM319.234 528.633V537.281C317.593 534.328 315.331 531.984 312.448 530.25C309.495 528.445 306.273 527.543 302.78 527.543C297.624 527.543 293.206 529.383 289.527 533.062C285.87 536.719 284.042 541.137 284.042 546.316C284.042 551.473 285.87 555.891 289.527 559.57C293.206 563.227 297.624 565.055 302.78 565.055C306.273 565.055 309.495 564.152 312.448 562.348C315.331 560.613 317.593 558.27 319.234 555.316V562.383C319.234 566.906 317.628 570.773 314.417 573.984C311.206 577.195 307.327 578.801 302.78 578.801V581.121C307.96 581.121 312.378 579.293 316.034 575.637C319.714 571.957 321.554 567.539 321.554 562.383V528.633H319.234ZM361.266 545.156C361.571 540.867 363.294 537.258 366.434 534.328C369.598 531.352 373.337 529.863 377.649 529.863C381.985 529.863 385.723 531.352 388.864 534.328C392.028 537.258 393.751 540.867 394.032 545.156H361.266ZM396.423 546.316C396.423 541.137 394.583 536.719 390.903 533.062C387.247 529.383 382.829 527.543 377.649 527.543C372.493 527.543 368.075 529.383 364.395 533.062C360.739 536.719 358.911 541.137 358.911 546.316C358.911 551.473 360.739 555.891 364.395 559.57C368.075 563.227 372.493 565.055 377.649 565.055C382.829 565.055 387.247 563.227 390.903 559.57L389.286 557.918C386.075 561.129 382.196 562.734 377.649 562.734C373.337 562.734 369.598 561.258 366.434 558.305C363.294 555.352 361.571 551.742 361.266 547.477H396.423V546.316ZM448.721 527.543C443.424 527.543 439.334 529.781 436.452 534.258V528.633H434.131V564H436.452V542.133C436.452 538.758 437.647 535.863 440.038 533.449C442.452 531.059 445.346 529.863 448.721 529.863C452.12 529.863 455.014 531.059 457.405 533.449C459.819 535.863 461.026 538.758 461.026 542.133V564H463.346V542.133C463.346 538.125 461.916 534.691 459.057 531.832C456.198 528.973 452.752 527.543 448.721 527.543ZM500.703 537.633V539.953H545.07V537.633H500.703ZM582.392 528.668V530.988H607.423L582.392 561.68V564H610.306V561.68H585.38L610.306 530.988V528.668H582.392Z" fill="black"/>
<rect x="107" y="65.1134" width="256" height="157.198" stroke="black" stroke-width="2"/>
<rect x="363" y="65.1134" width="256" height="157.198" stroke="black" stroke-width="2"/>
<rect x="107" y="222.311" width="256" height="157.198" stroke="black" stroke-width="2"/>
<rect x="363" y="222.311" width="256" height="157.198" stroke="black" stroke-width="2"/>
<rect width="212.423" height="212.423" transform="matrix(0.852164 -0.523274 0.852164 0.523274 0.961304 222.311)" stroke="black" stroke-width="2"/>
<rect width="212.423" height="212.423" transform="matrix(0.852164 -0.523274 0.852164 0.523274 181.981 111.155)" stroke="black" stroke-width="2"/>
<rect width="212.423" height="212.423" transform="matrix(0.852164 -0.523274 0.852164 0.523274 181.981 333.466)" stroke="black" stroke-width="2"/>
<rect width="212.423" height="212.423" transform="matrix(0.852164 -0.523274 0.852164 0.523274 363 222.311)" stroke="black" stroke-width="2"/>
<line x1="1" y1="221.872" x2="0.999995" y2="321.872" stroke="url(#paint0_linear_11_67)" stroke-width="2"/>
<line x1="107" y1="379.805" x2="107" y2="479.805" stroke="url(#paint1_linear_11_67)" stroke-width="2"/>
<line x1="363" y1="443.709" x2="363" y2="543.709" stroke="url(#paint2_linear_11_67)" stroke-width="2"/>
<line x1="619" y1="379.805" x2="619" y2="479.805" stroke="url(#paint3_linear_11_67)" stroke-width="2"/>
<line x1="725" y1="221.872" x2="725" y2="321.872" stroke="url(#paint4_linear_11_67)" stroke-width="2"/>
<line x1="363" y1="378.893" x2="363" y2="478.893" stroke="url(#paint5_linear_11_67)" stroke-width="2"/>
<line x1="182" y1="111.41" x2="182" y2="211.41" stroke="url(#paint6_linear_11_67)" stroke-width="2"/>
<line x1="544" y1="111.41" x2="544" y2="211.41" stroke="url(#paint7_linear_11_67)" stroke-width="2"/>
<line x1="363" y1="0.0352784" x2="363" y2="100.035" stroke="url(#paint8_linear_11_67)" stroke-width="2"/>
</g>
<defs>
<linearGradient id="paint0_linear_11_67" x1="-4.17003e-08" y1="231.872" x2="2.22074e-07" y2="311.372" gradientUnits="userSpaceOnUse">
<stop/>
<stop offset="1" stop-opacity="0"/>
</linearGradient>
<linearGradient id="paint1_linear_11_67" x1="106" y1="389.805" x2="106" y2="469.305" gradientUnits="userSpaceOnUse">
<stop/>
<stop offset="1" stop-opacity="0"/>
</linearGradient>
<linearGradient id="paint2_linear_11_67" x1="362" y1="453.709" x2="362" y2="533.209" gradientUnits="userSpaceOnUse">
<stop/>
<stop offset="1" stop-opacity="0"/>
</linearGradient>
<linearGradient id="paint3_linear_11_67" x1="618" y1="389.805" x2="618" y2="469.305" gradientUnits="userSpaceOnUse">
<stop/>
<stop offset="1" stop-opacity="0"/>
</linearGradient>
<linearGradient id="paint4_linear_11_67" x1="724" y1="231.872" x2="724" y2="311.372" gradientUnits="userSpaceOnUse">
<stop/>
<stop offset="1" stop-opacity="0"/>
</linearGradient>
<linearGradient id="paint5_linear_11_67" x1="362" y1="388.893" x2="362" y2="468.393" gradientUnits="userSpaceOnUse">
<stop/>
<stop offset="1" stop-opacity="0"/>
</linearGradient>
<linearGradient id="paint6_linear_11_67" x1="181" y1="121.41" x2="181" y2="200.91" gradientUnits="userSpaceOnUse">
<stop/>
<stop offset="1" stop-opacity="0"/>
</linearGradient>
<linearGradient id="paint7_linear_11_67" x1="543" y1="121.41" x2="543" y2="200.91" gradientUnits="userSpaceOnUse">
<stop/>
<stop offset="1" stop-opacity="0"/>
</linearGradient>
<linearGradient id="paint8_linear_11_67" x1="362" y1="10.0353" x2="362" y2="89.5353" gradientUnits="userSpaceOnUse">
<stop/>
<stop offset="1" stop-opacity="0"/>
</linearGradient>
<clipPath id="clip0_11_67">
<rect width="725" height="596" fill="white"/>
</clipPath>
</defs>
</svg>
