<svg width="500" height="625" viewBox="0 0 500 625" fill="none" xmlns="http://www.w3.org/2000/svg">
<rect x="1.41421" y="250" width="351.553" height="351.553" transform="rotate(-45 1.41421 250)" stroke="white" stroke-width="2"/>
<rect x="74.2233" y="74.2233" width="351.553" height="351.553" stroke="white" stroke-width="2"/>
<line x1="73" y1="249" x2="427" y2="249" stroke="white" stroke-width="2"/>
<line x1="249" y1="427" x2="249" y2="73" stroke="white" stroke-width="2"/>
<line x1="124.135" y1="374.451" x2="374.451" y2="124.135" stroke="white" stroke-width="2"/>
<line x1="374.451" y1="375.865" x2="124.135" y2="125.549" stroke="white" stroke-width="2"/>
<path d="M55.125 513.551L30.7969 562.664L6.43359 513.551H2.46094V564H4.78125V515.414L28.8633 564H32.7305L56.2148 516.574V564H58.5352V513.551H55.125ZM114.56 562.734C110.037 562.734 106.17 561.129 102.959 557.918C99.7477 554.707 98.1422 550.84 98.1422 546.316C98.1422 541.77 99.7477 537.891 102.959 534.68C106.17 531.469 110.037 529.863 114.56 529.863C119.107 529.863 122.986 531.469 126.197 534.68C129.408 537.891 131.013 541.77 131.013 546.316C131.013 550.84 129.408 554.707 126.197 557.918C122.986 561.129 119.107 562.734 114.56 562.734ZM131.013 528.633V537.281C129.373 534.328 127.111 531.984 124.228 530.25C121.275 528.445 118.052 527.543 114.56 527.543C109.404 527.543 104.986 529.383 101.306 533.062C97.65 536.719 95.8219 541.137 95.8219 546.316C95.8219 551.473 97.65 555.891 101.306 559.57C104.986 563.227 109.404 565.055 114.56 565.055C118.052 565.055 121.275 564.152 124.228 562.348C127.111 560.613 129.373 558.27 131.013 555.316V563.965H133.334V528.633H131.013ZM189.78 562.734C185.257 562.734 181.39 561.129 178.179 557.918C174.968 554.707 173.363 550.84 173.363 546.316C173.363 541.77 174.968 537.891 178.179 534.68C181.39 531.469 185.257 529.863 189.78 529.863C194.327 529.863 198.206 531.469 201.417 534.68C204.628 537.891 206.234 541.77 206.234 546.316C206.234 550.84 204.628 554.707 201.417 557.918C198.206 561.129 194.327 562.734 189.78 562.734ZM206.234 528.633V537.281C204.593 534.328 202.331 531.984 199.448 530.25C196.495 528.445 193.273 527.543 189.78 527.543C184.624 527.543 180.206 529.383 176.527 533.062C172.87 536.719 171.042 541.137 171.042 546.316C171.042 551.473 172.87 555.891 176.527 559.57C180.206 563.227 184.624 565.055 189.78 565.055C193.273 565.055 196.495 564.152 199.448 562.348C202.331 560.613 204.593 558.27 206.234 555.316V562.383C206.234 566.906 204.628 570.773 201.417 573.984C198.206 577.195 194.327 578.801 189.78 578.801V581.121C194.96 581.121 199.378 579.293 203.034 575.637C206.714 571.957 208.554 567.539 208.554 562.383V528.633H206.234ZM248.266 545.156C248.571 540.867 250.294 537.258 253.434 534.328C256.598 531.352 260.337 529.863 264.649 529.863C268.985 529.863 272.723 531.352 275.864 534.328C279.028 537.258 280.751 540.867 281.032 545.156H248.266ZM283.423 546.316C283.423 541.137 281.583 536.719 277.903 533.062C274.247 529.383 269.829 527.543 264.649 527.543C259.493 527.543 255.075 529.383 251.395 533.062C247.739 536.719 245.911 541.137 245.911 546.316C245.911 551.473 247.739 555.891 251.395 559.57C255.075 563.227 259.493 565.055 264.649 565.055C269.829 565.055 274.247 563.227 277.903 559.57L276.286 557.918C273.075 561.129 269.196 562.734 264.649 562.734C260.337 562.734 256.598 561.258 253.434 558.305C250.294 555.352 248.571 551.742 248.266 547.477H283.423V546.316ZM335.721 527.543C330.424 527.543 326.334 529.781 323.452 534.258V528.633H321.131V564H323.452V542.133C323.452 538.758 324.647 535.863 327.038 533.449C329.452 531.059 332.346 529.863 335.721 529.863C339.12 529.863 342.014 531.059 344.405 533.449C346.819 535.863 348.026 538.758 348.026 542.133V564H350.346V542.133C350.346 538.125 348.916 534.691 346.057 531.832C343.198 528.973 339.752 527.543 335.721 527.543ZM387.703 537.633V539.953H432.07V537.633H387.703ZM469.392 528.668V530.988H494.423L469.392 561.68V564H497.306V561.68H472.38L497.306 530.988V528.668H469.392Z" fill="white"/>
</svg>
